# xmcd CD database file
#
# Track frame offsets:
#	150
#	19505
#	40246
#	62660
#	82008
#	96906
#	111240
#	126430
#
# Disc length: 1790 seconds
#
# Revision: 0
# Processed by: cddbd v1.5.2PL0 Copyright (c) Steve Scherf et al.
# Submitted via: CDex 1.51
#
DISCID=6706fc08
DTITLE=Baia Ostinia - Merengue Vari
DYEAR=2006
DGENRE=Merengue
TTITLE0=04 - merenghe
TTITLE1=09 - merenghe
TTITLE2=Kinito Mendez - Los Motoritas En Navidad!!merengue
TTITLE3=Christian Castro - Azul (merengue)
TTITLE4=Los Sabrosos del merengue - Soltero y sabroso
TTITLE5=La Banda Gorda - Tu muere qui
TTITLE6=Kaos - La mas sexy
TTITLE7=Grupomania - A que te pego mi mania
EXTD=YEAR: 2006
EXTT0=
EXTT1=
EXTT2=
EXTT3=
EXTT4=
EXTT5=
EXTT6=
EXTT7=
PLAYORDER=
